<svg width="534" height="359" viewBox="0 0 534 359" xmlns="http://www.w3.org/2000/svg">
  <!-- App Background -->
  <rect x="0" y="0" width="534" height="359" rx="8" fill="#EBEBEB"/>

  <!-- Sidebar -->
  <rect x="0" y="0" width="70" height="359" fill="#1A67B9"/>

  <!-- Sidebar Icons -->
  <rect x="20" y="40" width="30" height="30" rx="4" fill="#FFFFFF"/>
  <rect x="20" y="90" width="30" height="30" rx="4" fill="#FFFFFF"/>
  <rect x="20" y="140" width="30" height="30" rx="4" fill="#FFFFFF"/>

  <!-- Top Bar -->
  <rect x="90" y="20" width="420" height="40" rx="6" fill="#DADADA"/>

  <!-- Property Cards -->
  <rect x="90" y="80" width="180" height="100" rx="8" fill="#FFFFFF"/>
  <rect x="290" y="80" width="180" height="100" rx="8" fill="#FFFFFF"/>

  <!-- Building Icons -->
  <rect x="115" y="105" width="30" height="55" fill="#1A67B9"/>
  <rect x="155" y="95" width="30" height="65" fill="#1A67B9"/>

  <rect x="315" y="105" width="30" height="55" fill="#1A67B9"/>
  <rect x="355" y="95" width="30" height="65" fill="#1A67B9"/>

  <!-- Tenant Section -->
  <rect x="90" y="200" width="380" height="60" rx="8" fill="#FFFFFF"/>
  <circle cx="120" cy="230" r="15" fill="#C7C7C7"/>
  <rect x="145" y="215" width="120" height="8" rx="4" fill="#C7C7C7"/>
  <rect x="145" y="230" width="90" height="8" rx="4" fill="#C7C7C7"/>

  <!-- Rent Status -->
  <rect x="90" y="280" width="180" height="40" rx="6" fill="#FFFFFF"/>
  <rect x="290" y="280" width="180" height="40" rx="6" fill="#FFFFFF"/>

  <rect x="110" y="295" width="80" height="10" rx="4" fill="#4CAF50"/>
  <rect x="310" y="295" width="80" height="10" rx="4" fill="#F44336"/>
</svg>
