<svg id="Layer_1" data-name="Layer 1" xmlns="http://www.w3.org/2000/svg" viewBox="0 0 24 24"><defs><style>.cls-1{fill:#fff;}</style></defs><path class="cls-1" d="M15.93,13.81,17.76,12a1.53,1.53,0,0,0,.35-1.54,1.5,1.5,0,0,0-1.17-1L14.44,9,13.32,6.66a1.45,1.45,0,0,0-2.64,0L9.56,9l-2.5.37a1.5,1.5,0,0,0-1.17,1A1.53,1.53,0,0,0,6.24,12l1.83,1.86-.43,2.64a1.48,1.48,0,0,0,.61,1.47A1.43,1.43,0,0,0,9.78,18L12,16.78,14.23,18a1.47,1.47,0,0,0,2.13-1.56Z"/><path class="cls-1" d="M12,4.69a.82.82,0,0,0,.82-.82V1.33a.82.82,0,0,0-1.64,0V3.87A.82.82,0,0,0,12,4.69Z"/><path class="cls-1" d="M12,19.31a.82.82,0,0,0-.82.82v2.54a.82.82,0,0,0,1.64,0V20.13A.82.82,0,0,0,12,19.31Z"/><path class="cls-1" d="M22.67,11.18H20.13a.82.82,0,1,0,0,1.64h2.54a.82.82,0,1,0,0-1.64Z"/><path class="cls-1" d="M4.69,12a.82.82,0,0,0-.82-.82H1.33a.82.82,0,0,0,0,1.64H3.87A.82.82,0,0,0,4.69,12Z"/><path class="cls-1" d="M18.61,17.45a.82.82,0,0,0-1.16,1.16l1.23,1.23a.82.82,0,0,0,1.16-1.16Z"/><path class="cls-1" d="M5.39,6.55A.82.82,0,0,0,6.55,5.39L5.32,4.16A.82.82,0,0,0,4.16,5.32Z"/><path class="cls-1" d="M5.39,17.45,4.16,18.68a.82.82,0,0,0,1.16,1.16l1.23-1.23a.82.82,0,0,0-1.16-1.16Z"/><path class="cls-1" d="M18,6.79a.82.82,0,0,0,.58-.24l1.23-1.23a.82.82,0,0,0-1.16-1.16L17.45,5.39A.82.82,0,0,0,18,6.79Z"/></svg>